<?xml version="1.0" standalone="no"?>
<!DOCTYPE svg PUBLIC "-//W3C//DTD SVG 1.1//EN" "http://www.w3.org/Graphics/SVG/1.1/DTD/svg11.dtd" >
<svg xmlns="http://www.w3.org/2000/svg">
<metadata>Generated by IcoMoon</metadata>
<defs>
<font id="icomoon" horiz-adv-x="1024">
<font-face units-per-em="1024" ascent="960" descent="-64" />
<missing-glyph horiz-adv-x="1024" />
<glyph unicode="&#x20;" horiz-adv-x="512" d="" />
<glyph unicode="&#xe8f5;" glyph-name="wind" d="M862 576c-53 0-96-43-96-96 0-11.292 2.334-21.916 5.876-32h-613.876c-17.666 0-32-14.334-32-32s14.334-32 32-32h704c53 0 96 43 96 96s-43 96-96 96zM158 512h384c53 0 96 43 96 96s-43 96-96 96-96-43-96-96c0-11.292 2.334-21.916 5.876-32h-293.876c-17.666 0-32-14.334-32-32s14.334-32 32-32zM670 320c-1.876 0-3.668-0.416-5.582-0.582-1.25 0.082-2.292 0.582-3.542 0.582h-493.708c-22.75 0-41.168-14.334-41.168-32s18.418-32 41.168-32h412.708c-3.542-10.084-5.876-20.752-5.876-32 0-53 43-96 96-96s96 43 96 96-43 96-96 96z" />
<glyph unicode="&#xe8f9;" glyph-name="windy" d="M834.084 627.834c-47.958 49.084-114.25 77.542-183.46 77.542-69.124 0-135.376-28.458-183.33-77.542-105.626-4.918-190.042-92.376-190.042-199.168 0-109.916 89.418-199.332 199.376-199.332 11.668 0 23.208 1 34.542 2.998 41.458-27.082 89.834-41.708 139.458-41.708 49.708 0 98.126 14.626 139.544 41.708 11.414-1.998 22.916-2.998 34.582-2.998 109.874 0 199.25 89.416 199.25 199.332-0.004 106.792-84.38 194.25-189.92 199.168zM824.75 293.334c-16.624 0-32.75 2.998-48 8.834-35-30.5-79.5-47.544-126.126-47.544-46.498 0-90.998 17.044-125.998 47.544-15.25-5.836-31.5-8.834-48-8.834-74.624 0-135.376 60.75-135.376 135.332 0 74.626 60.75 135.376 135.376 135.376 6.376 0 12.75-0.458 19.042-1.376 36.208 49.166 93.082 78.708 154.956 78.708 61.876 0 118.876-29.542 155.002-78.708 6.25 0.916 12.624 1.376 19.124 1.376 74.624 0 135.25-60.75 135.25-135.376 0-74.582-60.624-135.332-135.25-135.332zM288 256h-256c-17.666 0-32-14.334-32-32s14.334-32 32-32h256c17.666 0 32 14.334 32 32s-14.334 32-32 32zM32 320h128c17.666 0 32 14.334 32 32s-14.334 32-32 32h-128c-17.666 0-32-14.334-32-32s14.334-32 32-32zM96 448h128c17.666 0 32 14.334 32 32s-14.334 32-32 32h-128c-17.666 0-32-14.334-32-32s14.334-32 32-32z" />
<glyph unicode="&#xe900;" glyph-name="sun" d="M512 672c-123.5 0-224-100.5-224-224s100.5-224 224-224 224 100.5 224 224c0 123.5-100.5 224-224 224zM512 288c-88.376 0-160 71.624-160 160s71.624 160 160 160 160-71.624 160-160-71.624-160-160-160zM512 736c17.666 0 32 14.334 32 32v64c0 17.666-14.334 32-32 32s-32-14.334-32-32v-64c0-17.666 14.334-32 32-32zM512 160c-17.666 0-32-14.334-32-32v-64c0-17.666 14.334-32 32-32s32 14.334 32 32v64c0 17.666-14.334 32-32 32zM760.876 651.666l45.25 45.25c12.5 12.5 12.5 32.75 0 45.25s-32.75 12.5-45.25 0l-45.25-45.25c-12.5-12.5-12.5-32.75 0-45.25 12.498-12.5 32.75-12.5 45.25 0zM263.124 244.332l-45.25-45.25c-12.5-12.498-12.5-32.748 0-45.248s32.75-12.5 45.25 0l45.25 45.248c12.5 12.542 12.5 32.752 0 45.25-12.498 12.502-32.75 12.544-45.25 0zM224 448c0 17.666-14.334 32-32 32h-64c-17.666 0-32-14.334-32-32s14.334-32 32-32h64c17.666 0 32 14.334 32 32zM896 480h-64c-17.666 0-32-14.334-32-32s14.334-32 32-32h64c17.666 0 32 14.334 32 32s-14.334 32-32 32zM263.082 651.666c12.502-12.5 32.752-12.5 45.25 0 12.502 12.5 12.502 32.75 0 45.25l-45.25 45.25c-12.5 12.5-32.748 12.5-45.25 0-12.5-12.5-12.5-32.75 0-45.25l45.25-45.25zM760.918 244.376c-12.542 12.5-32.752 12.5-45.25 0-12.502-12.5-12.542-32.75 0-45.25l45.25-45.25c12.498-12.5 32.748-12.5 45.248 0s12.5 32.748 0 45.25l-45.248 45.25z" />
<glyph unicode="&#xe901;" glyph-name="ic_bird" d="M979.968 639.488c0 0-33.792 31.744-50.176 40.96s8.192 34.816-53.248 51.2c-77.824 21.504-143.36-17.408-230.4-88.064-86.016-69.632-228.352-144.384-281.6-196.608-17.408-17.408-23.552-16.384-23.552-16.384s-349.184-37.888-328.704-47.104c21.504-9.216 16.384-30.72 91.136-18.432 74.752 11.264 220.16 7.168 270.336-5.12 49.152-11.264 46.080-19.456 102.4-64.512 39.936-31.744 72.704-59.392 131.072-67.584 76.8-5.12 112.64 14.336 165.888 46.080 55.296 33.792 109.568 73.728 128 153.6s19.456 192.512 20.48 192.512c5.12 0 63.488 14.336 58.368 19.456z" />
<glyph unicode="&#xe902;" glyph-name="cloudy" d="M416 832c17.666 0 32 14.334 32 32v64c0 17.666-14.334 32-32 32s-32-14.334-32-32v-64c0-17.666 14.334-32 32-32zM664.876 747.666l45.25 45.25c12.498 12.5 12.498 32.75 0 45.25-12.5 12.5-32.75 12.5-45.25 0l-45.25-45.25c-12.5-12.5-12.5-32.75 0-45.25 12.498-12.5 32.75-12.5 45.25 0zM32 512h64c17.666 0 32 14.334 32 32s-14.334 32-32 32h-64c-17.666 0-32-14.334-32-32s14.334-32 32-32zM704 544c0-17.666 14.334-32 32-32h64c17.666 0 32 14.334 32 32s-14.334 32-32 32h-64c-17.666 0-32-14.334-32-32zM167.082 747.666c12.502-12.5 32.752-12.5 45.25 0 12.502 12.5 12.502 32.75 0 45.25l-45.25 45.25c-12.5 12.5-32.748 12.5-45.25 0-12.5-12.5-12.5-32.75 0-45.25l45.25-45.25zM800 448c-10.624 0-21.124-0.75-31.584-2.25-33.542 45.75-78.248 80.666-128.916 103-2.582 121.25-101.624 219.25-223.5 219.25-123.5 0-224-100.5-224-224 0-34.876 8.668-67.5 23-96.876-119.25-4.874-215-102.748-215-223.124 0-123.5 100.5-224 224-224 27.376 0 54.168 5 79.418 14.666 57.914-50.5 131.582-78.666 208.582-78.666 77.084 0 150.666 28.166 208.582 78.666 25.25-9.666 52.042-14.666 79.418-14.666 123.5 0 224 100.5 224 224s-100.5 224-224 224zM416 704c79.624 0 145.124-58.334 157.416-134.5-20.042 4-40.498 6.5-61.416 6.5-91.876 0-177-39.624-236.75-106.5-11.874 22.334-19.25 47.416-19.25 74.5 0 88.376 71.624 160 160 160zM800 64c-34.25 0-65.832 11-91.876 29.334-46.956-56.584-116.876-93.334-196.124-93.334-79.25 0-149.168 36.75-196.124 93.334-26-18.334-57.626-29.334-91.876-29.334-88.376 0-160 71.624-160 160s71.624 160 160 160c15.5 0 30.124-2.916 44.25-7.082 5.624-1.584 11.334-2.834 16.624-5.042 8.75 17.124 19.75 32.792 31.958 47.5 46.752 56.248 116.292 92.624 195.168 92.624 20.25 0 39.668-2.916 58.5-7.418 21.124-4.998 41.084-12.582 59.668-22.582 46.582-24.75 84.832-63.084 108.914-110.126 18.794 7.75 39.336 12.126 60.918 12.126 88.376 0 160-71.624 160-160s-71.624-160-160-160z" />
<glyph unicode="&#xe903;" glyph-name="cloud" d="M870.124 435.668c9.75 7.25 19.624 14.376 28.458 23.208 26.416 26.458 46.542 58.666 59.584 95.708 4.166 11.584 1.208 24.584-7.544 33.25-8.708 8.75-21.624 11.708-33.246 7.584-70.792-25-147.376-8-199.792 44.5-52.5 52.502-69.584 129.042-44.5 199.792 4.084 11.626 1.166 24.542-7.584 33.292-8.666 8.666-21.624 11.668-33.25 7.582-37.084-13.164-69.25-33.246-95.668-59.664-67.082-67-87.958-162-64.958-247.584-86.5-11.042-164.25-57-216.042-127.586-10.458 1.5-20.958 2.25-31.584 2.25-123.5 0-224-100.5-224-224.002 0-123.498 100.5-223.998 224-223.998 27.376 0 54.168 5 79.418 14.668 57.914-50.5 131.582-78.668 208.582-78.668 77.084 0 150.666 28.168 208.582 78.668 25.25-9.668 52.042-14.668 79.418-14.668 123.5 0 224 100.5 224 223.998 0.002 98.878-64.832 182.044-153.874 211.67zM581.832 775.668c5.084 5.166 10.542 9.958 16.292 14.458-4.5-71.958 21.458-142.75 74.208-195.458 52.752-52.75 123.542-78.666 195.502-74.208-27.584-35.168-65.584-57.042-106.252-66.376-54.75 69.5-135.208 113.25-223.916 120.374-24.542 67.918-10.166 146.876 44.166 201.21zM800 64c-34.25 0-65.832 11-91.876 29.334-46.958-56.584-116.876-93.334-196.124-93.334-79.25 0-149.168 36.75-196.124 93.334-26-18.334-57.624-29.334-91.876-29.334-88.376 0-160 71.624-160 159.998 0 88.376 71.624 160 160 160 21.624 0 42.124-4.376 60.876-12.124 40.376 78.71 119.5 133.792 212.624 139.086 4.876 0.29 9.624 1.042 14.5 1.042 25.832 0 50.624-4.042 74-11.166 31.582-9.668 60.376-25.416 85.376-45.708 23.876-19.376 43.876-43.124 59.624-69.792 2.666-4.5 5.668-8.75 8.082-13.458 18.792 7.75 39.336 12.124 60.918 12.124 88.376 0 160-71.624 160-160s-71.624-160.002-160-160.002z" />
<glyph unicode="&#xe904;" glyph-name="cloud2" d="M800 640c-10.624 0-21.124-0.75-31.584-2.25-59.748 81.416-154.040 130.25-256.416 130.25s-196.624-48.834-256.416-130.25c-10.46 1.5-20.96 2.25-31.584 2.25-123.5 0-224-100.5-224-224s100.5-224 224-224c27.376 0 54.168 5 79.418 14.666 57.914-50.5 131.582-78.666 208.582-78.666 77.084 0 150.666 28.166 208.582 78.666 25.25-9.666 52.042-14.666 79.418-14.666 123.5 0 224 100.5 224 224s-100.5 224-224 224zM800 256c-34.25 0-65.832 11-91.876 29.334-46.956-56.582-116.876-93.334-196.124-93.334-79.25 0-149.168 36.752-196.124 93.334-26-18.334-57.626-29.334-91.876-29.334-88.376 0-160 71.624-160 160s71.624 160 160 160c21.624 0 42.124-4.416 60.876-12.166 42.458 82.832 127.706 140.166 227.124 140.166s184.668-57.334 227.082-140.166c18.794 7.75 39.336 12.166 60.918 12.166 88.376 0 160-71.624 160-160s-71.624-160-160-160z" />
<glyph unicode="&#xe905;" glyph-name="lightning" d="M800 832c-10.624 0-21.124-0.75-31.584-2.25-59.748 81.416-154.040 130.25-256.416 130.25s-196.624-48.834-256.416-130.25c-10.46 1.5-20.96 2.25-31.584 2.25-123.5 0-224-100.5-224-224s100.5-224 224-224c27.376 0 54.168 5 79.418 14.666 43.082-37.542 94.832-62.582 150.208-73.042l-69.626-69.624 64-64-64-192 192 192-64 64 22 65.998c68.916 4.876 134.25 31.086 186.582 76.668 25.25-9.666 52.042-14.666 79.418-14.666 123.5 0 224 100.5 224 224s-100.5 224-224 224zM800 448c-34.25 0-65.832 11-91.876 29.334-37.876-45.666-91.124-77.25-151.75-88.208l-44.374-5.126c-79.25 0-149.168 36.75-196.124 93.334-26-18.334-57.626-29.334-91.876-29.334-88.376 0-160 71.624-160 160s71.624 160 160 160c21.624 0 42.124-4.416 60.876-12.166 42.458 82.832 127.706 140.166 227.124 140.166s184.668-57.334 227.082-140.166c18.794 7.75 39.336 12.166 60.918 12.166 88.376 0 160-71.624 160-160s-71.624-160-160-160z" />
<glyph unicode="&#xe906;" glyph-name="lightning2" d="M800 832c-10.624 0-21.124-0.75-31.584-2.25-59.748 81.416-154.040 130.25-256.416 130.25s-196.624-48.834-256.416-130.25c-10.46 1.5-20.96 2.25-31.584 2.25-123.5 0-224-100.5-224-224s100.5-224 224-224c27.376 0 54.168 5 79.418 14.666 24.582-21.416 52.5-37.916 81.832-50.832l49.832 49.748c-46.916 15.252-88.332 42.542-119.208 79.752-25.998-18.334-57.624-29.334-91.874-29.334-88.376 0-160 71.624-160 160s71.624 160 160 160c21.624 0 42.124-4.416 60.876-12.166 42.458 82.832 127.706 140.166 227.124 140.166s184.668-57.334 227.082-140.166c18.794 7.75 39.336 12.166 60.918 12.166 88.376 0 160-71.624 160-160s-71.624-160-160-160c-34.25 0-65.832 11-91.876 29.334-20.75-25.042-46.624-45.334-75.25-61.168l-26.874-80.666c41.75 13.124 81 33.876 114.582 63.166 25.25-9.666 52.042-14.666 79.418-14.666 123.5 0 224 100.5 224 224s-100.5 224-224 224zM384 256l64-64-64-192 192 192-64 64 64 192-192-192z" />
<glyph unicode="&#xe907;" glyph-name="rainy" d="M800 768c-10.624 0-21.124-0.75-31.584-2.25-59.748 81.416-154.040 130.25-256.416 130.25s-196.624-48.834-256.416-130.25c-10.46 1.5-20.96 2.25-31.584 2.25-123.5 0-224-100.5-224-224s100.5-224 224-224c27.376 0 54.168 5 79.418 14.666 57.914-50.5 131.582-78.666 208.582-78.666 77.084 0 150.666 28.166 208.582 78.666 25.25-9.666 52.042-14.666 79.418-14.666 123.5 0 224 100.5 224 224s-100.5 224-224 224zM800 384c-34.25 0-65.832 11-91.876 29.334-46.956-56.584-116.876-93.334-196.124-93.334-79.25 0-149.168 36.75-196.124 93.334-26-18.334-57.626-29.334-91.876-29.334-88.376 0-160 71.624-160 160s71.624 160 160 160c21.624 0 42.124-4.416 60.876-12.166 42.458 82.832 127.706 140.166 227.124 140.166s184.668-57.334 227.082-140.166c18.794 7.75 39.336 12.166 60.918 12.166 88.376 0 160-71.624 160-160s-71.624-160-160-160zM448 64c0-35.376 28.624-64 64-64s64 28.624 64 64-64 128-64 128-64-92.624-64-128z" />
<glyph unicode="&#xe908;" glyph-name="rainy2" d="M800 832c-10.624 0-21.124-0.75-31.584-2.25-59.748 81.416-154.040 130.25-256.416 130.25s-196.624-48.834-256.416-130.25c-10.46 1.5-20.96 2.25-31.584 2.25-123.5 0-224-100.5-224-224s100.5-224 224-224c27.376 0 54.168 5 79.418 14.666 57.914-50.5 131.582-78.666 208.582-78.666 77.084 0 150.666 28.166 208.582 78.666 25.25-9.666 52.042-14.666 79.418-14.666 123.5 0 224 100.5 224 224s-100.5 224-224 224zM800 448c-34.25 0-65.832 11-91.876 29.334-46.956-56.584-116.876-93.334-196.124-93.334-79.25 0-149.168 36.75-196.124 93.334-26-18.334-57.626-29.334-91.876-29.334-88.376 0-160 71.624-160 160s71.624 160 160 160c21.624 0 42.124-4.416 60.876-12.166 42.458 82.832 127.706 140.166 227.124 140.166s184.668-57.334 227.082-140.166c18.794 7.75 39.336 12.166 60.918 12.166 88.376 0 160-71.624 160-160s-71.624-160-160-160zM450 0c0-35.376 28.624-64 64-64s64 28.624 64 64-64 128-64 128-64-92.624-64-128zM704 64c0-35.376 28.624-64 64-64s64 28.624 64 64-64 128-64 128-64-92.624-64-128zM192 192c0-35.376 28.624-64 64-64s64 28.624 64 64-64 128-64 128-64-92.624-64-128z" />
<glyph unicode="&#xe909;" glyph-name="ic_prints" d="M408.576 454.144l19.456 311.296c0 7.168-2.048 14.336-6.144 19.456-5.12 5.12-11.264 8.192-18.432 9.216-7.168 0-14.336-2.048-19.456-6.144-5.12-5.12-8.192-11.264-9.216-18.432l-9.216-152.576-68.608 257.024c-4.096 14.336-18.432 22.528-32.768 18.432s-22.528-18.432-18.432-32.768l68.608-257.024-89.088 133.12c-8.192 12.288-24.576 15.36-36.864 7.168-6.144-4.096-10.24-10.24-11.264-17.408s0-14.336 4.096-19.456l175.104-259.072 49.152-185.344c3.072-11.264 13.312-19.456 25.6-19.456 2.048 0 4.096 0 7.168 1.024 14.336 4.096 22.528 18.432 18.432 32.768l-48.128 178.176zM745.472 583.168c-7.168 2.048-14.336 1.024-20.48-2.048s-11.264-9.216-13.312-15.36l-44.032-146.432-7.168 267.264c0 7.168-3.072 14.336-8.192 19.456s-12.288 7.168-18.432 7.168c-7.168 0-13.312-3.072-18.432-8.192s-7.168-12.288-7.168-19.456l7.168-265.216-55.296 148.48c-2.048 7.168-7.168 12.288-14.336 15.36-6.144 3.072-13.312 3.072-20.48 1.024-6.144-2.048-12.288-7.168-15.36-14.336-3.072-6.144-3.072-13.312-1.024-20.48l109.568-292.864 6.144-193.536c0-14.336 12.288-25.6 27.648-25.6 14.336 0 26.624 12.288 25.6 27.648l-5.12 185.344 91.136 297.984c4.096 14.336-4.096 29.696-18.432 33.792z" />
<glyph unicode="&#xe90a;" glyph-name="windy2" d="M834.084 818.416c-47.96 49.126-114.25 77.584-183.46 77.584-69.124 0-135.376-28.458-183.33-77.584-105.626-4.876-190.042-92.334-190.042-199.084 0-109.956 89.418-199.416 199.376-199.416 11.668 0 23.208 1.002 34.542 3 41.458-27.042 89.834-41.666 139.458-41.666 49.708 0 98.126 14.624 139.544 41.666 11.414-1.998 22.916-3 34.582-3 109.876 0 199.25 89.46 199.25 199.416-0.004 106.752-84.38 194.252-189.92 199.084zM824.75 483.916c-16.624 0-32.75 3-48 8.916-35-30.5-79.5-47.584-126.126-47.584-46.498 0-90.998 17.084-125.998 47.584-15.25-5.918-31.5-8.916-48-8.916-74.624 0-135.376 60.75-135.376 135.416 0 74.584 60.75 135.334 135.376 135.334 6.376 0 12.75-0.5 19.042-1.376 36.208 49.168 93.082 78.71 154.956 78.71 61.876 0 118.876-29.542 155.002-78.708 6.25 0.876 12.624 1.376 19.124 1.376 74.624 0 135.25-60.75 135.25-135.334 0-74.668-60.624-135.418-135.25-135.418zM288 446.624h-256c-17.666 0-32-14.292-32-32 0-17.706 14.334-32 32-32h256c17.666 0 32 14.294 32 32 0 17.708-14.334 32-32 32zM32 510.624h128c17.666 0 32 14.292 32 32s-14.334 32-32 32h-128c-17.666 0-32-14.292-32-32s14.334-32 32-32zM96 638.624h128c17.666 0 32 14.292 32 32s-14.334 32-32 32h-128c-17.666 0-32-14.292-32-32s14.334-32 32-32zM448 192c0-35.376 28.624-64 64-64s64 28.624 64 64-64 128-64 128-64-92.624-64-128zM704 64c0-35.376 28.624-64 64-64s64 28.624 64 64-64 128-64 128-64-92.624-64-128z" />
<glyph unicode="&#xe90b;" glyph-name="snowy" d="M652.084 72.624l-36 20.752c1.084 6.248 1.916 12.622 1.916 19.248 0 6.624-0.832 13-2 19.25l36.084 20.792c16.834 9.834 22.582 31.458 12.916 48.208-9.752 16.958-31.334 22.75-48.25 13l-36.376-21c-9.752 8.292-20.75 14.792-33 19.208v41.792c0 19.542-15.876 35.376-35.376 35.376s-35.332-15.834-35.332-35.376v-41.75c-12.252-4.376-23.292-10.958-33.042-19.25l-36.292 21c-16.958 9.75-38.584 4-48.334-12.958-9.75-16.834-3.876-38.5 13-48.252l35.918-20.75c-1.168-6.292-1.918-12.668-1.918-19.292 0-6.626 0.75-13 1.918-19.248l-35.916-20.75c-16.918-9.75-22.75-31.5-13-48.376s31.376-22.624 48.25-12.876l36.334 20.876c9.748-8.25 20.792-14.75 33.084-19.124v-41.876c0-19.498 15.832-35.248 35.332-35.248s35.376 15.75 35.376 35.248v41.876c12.25 4.376 23.376 10.876 33.042 19.25l36.334-21c16.916-9.75 38.498-4 48.25 12.876 9.748 16.874 3.998 38.5-12.918 48.374zM512 77.25c-19.5 0-35.376 15.876-35.376 35.376s15.876 35.292 35.376 35.292 35.334-15.792 35.334-35.292-15.834-35.376-35.334-35.376zM800 832c-10.624 0-21.124-0.75-31.584-2.25-59.748 81.416-154.040 130.25-256.416 130.25s-196.624-48.834-256.416-130.25c-10.46 1.5-20.96 2.25-31.584 2.25-123.5 0-224-100.5-224-224s100.5-224 224-224c27.376 0 54.168 5 79.418 14.666 57.914-50.5 131.582-78.666 208.582-78.666 77.084 0 150.666 28.166 208.582 78.666 25.25-9.666 52.042-14.666 79.418-14.666 123.5 0 224 100.5 224 224s-100.5 224-224 224zM800 448c-34.25 0-65.832 11-91.876 29.334-46.956-56.584-116.876-93.334-196.124-93.334-79.25 0-149.168 36.75-196.124 93.334-26-18.334-57.626-29.334-91.876-29.334-88.376 0-160 71.624-160 160s71.624 160 160 160c21.624 0 42.124-4.416 60.876-12.166 42.458 82.832 127.706 140.166 227.124 140.166s184.668-57.334 227.082-140.166c18.794 7.75 39.336 12.166 60.918 12.166 88.376 0 160-71.624 160-160s-71.624-160-160-160z" />
<glyph unicode="&#xe90c;" glyph-name="snowy2" d="M652.084 264.624l-36 20.75c1.084 6.25 1.916 12.624 1.916 19.25 0 6.624-0.832 13-2 19.25l36.084 20.792c16.834 9.834 22.582 31.458 12.916 48.208-9.752 16.958-31.334 22.75-48.25 13l-36.376-21c-9.754 8.292-20.75 14.792-33 19.208v41.792c0 19.542-15.876 35.376-35.376 35.376s-35.332-15.834-35.332-35.376v-41.75c-12.252-4.376-23.292-10.958-33.042-19.25l-36.292 21c-16.958 9.75-38.584 4-48.334-12.958-9.75-16.834-3.876-38.5 13-48.252l35.918-20.75c-1.168-6.292-1.918-12.668-1.918-19.292s0.75-13 1.918-19.246l-35.916-20.752c-16.918-9.75-22.75-31.5-13-48.376s31.376-22.624 48.25-12.876l36.334 20.876c9.748-8.25 20.792-14.75 33.084-19.124v-41.876c0-19.498 15.832-35.248 35.332-35.248s35.376 15.75 35.376 35.248v41.876c12.25 4.376 23.376 10.876 33.042 19.25l36.334-21c16.916-9.75 38.498-4 48.25 12.876 9.748 16.874 3.998 38.5-12.918 48.374zM512 269.25c-19.5 0-35.376 15.876-35.376 35.376s15.876 35.292 35.376 35.292 35.334-15.792 35.334-35.292-15.834-35.376-35.334-35.376zM800 832c-10.624 0-21.124-0.75-31.584-2.25-59.748 81.416-154.040 130.25-256.416 130.25s-196.624-48.834-256.416-130.25c-10.46 1.5-20.96 2.25-31.584 2.25-123.5 0-224-100.5-224-224s100.5-224 224-224c23.624 0 46.668 4.416 68.876 11.668 2.124 10.164 5.458 20.082 10.75 29.29 7.876 13.708 19.124 24.624 32 33.004-6.624 6.458-13.876 12.208-19.75 19.376-26-18.338-57.626-29.338-91.876-29.338-88.376 0-160 71.624-160 160s71.624 160 160 160c21.624 0 42.124-4.416 60.876-12.166 42.458 82.832 127.706 140.166 227.124 140.166s184.668-57.334 227.082-140.166c18.794 7.75 39.336 12.166 60.918 12.166 88.376 0 160-71.624 160-160s-71.624-160-160-160c-34.25 0-65.832 11-91.876 29.334-5.876-7.166-13.208-12.918-19.792-19.376 12.918-8.414 24.25-19.376 32.084-33.124 5.416-9.292 8.708-19.168 10.832-29.166 22.128-7.252 45.128-11.668 68.752-11.668 123.5 0 224 100.5 224 224s-100.5 224-224 224z" />
<glyph unicode="&#xe90d;" glyph-name="snowy3" d="M652.084 72.624l-36 20.752c1.084 6.248 1.916 12.622 1.916 19.248 0 6.624-0.832 13-2 19.25l36.084 20.792c16.834 9.834 22.582 31.458 12.916 48.208-9.752 16.958-31.334 22.75-48.25 13l-36.376-21c-9.752 8.292-20.75 14.792-33 19.208v41.792c0 19.542-15.876 35.376-35.376 35.376s-35.332-15.834-35.332-35.376v-41.75c-12.252-4.376-23.292-10.958-33.042-19.25l-36.292 21c-16.958 9.75-38.584 4-48.334-12.958-9.75-16.834-3.876-38.5 13-48.252l35.918-20.75c-1.168-6.292-1.918-12.668-1.918-19.292 0-6.626 0.75-13 1.918-19.248l-35.916-20.75c-16.918-9.75-22.75-31.5-13-48.376s31.376-22.624 48.25-12.876l36.334 20.876c9.748-8.25 20.792-14.75 33.084-19.124v-41.876c0-19.498 15.832-35.248 35.332-35.248s35.376 15.75 35.376 35.248v41.876c12.25 4.376 23.376 10.876 33.042 19.25l36.334-21c16.916-9.75 38.498-4 48.25 12.876 9.748 16.874 3.998 38.5-12.918 48.374zM512 77.25c-19.5 0-35.376 15.876-35.376 35.376s15.876 35.292 35.376 35.292 35.334-15.792 35.334-35.292-15.834-35.376-35.334-35.376zM948.332 167.5l-24.166 6.416c-0.582 7.666-2.416 14.958-5.792 21.958l17.542 17.542c8.25 8.25 8.208 21.584 0 29.708-8.166 8.208-21.416 8.25-29.666 0l-17.582-17.5c-6.918 3.25-14.292 5.124-21.918 5.75l-6.418 24.124c-2.998 11.166-14.5 17.876-25.748 14.876-11.208-3.042-17.75-14.542-14.834-25.75l6.418-23.792c-3.168-2.168-6.168-4.584-9-7.334-2.75-2.834-5.084-5.832-7.252-8.918l-23.792 6.418c-11.208 2.998-22.792-3.752-25.792-14.876-2.998-11.25 3.752-22.708 14.834-25.75l24-6.458c0.668-7.542 2.584-14.916 5.958-21.918l-17.624-17.624c-8.166-8.208-8.124-21.458 0.084-29.624 8.166-8.166 21.416-8.25 29.584-0.084l17.664 17.666c6.918-3.414 14.336-5.332 22.002-5.914l6.332-24.042c3.084-11.208 14.5-17.876 25.752-14.876 11.166 3 17.914 14.498 14.916 25.834l-6.418 23.792c3 2.124 6.084 4.5 8.918 7.25 2.75 2.792 5.084 5.876 7.248 8.958l23.834-6.418c11.208-3 22.75 3.708 25.708 14.834 3 11.17-3.624 22.668-14.792 25.752zM876.624 154.124c-8.25-8.25-21.542-8.208-29.75 0-8.124 8.124-8.208 21.458 0 29.708 8.208 8.166 21.542 8.166 29.75 0 8.126-8.208 8.126-21.582 0-29.708zM237.876 275l-23.75-6.376c-2.208 3-4.5 6.042-7.292 8.876-2.832 2.75-5.832 5.124-8.958 7.25l6.376 23.876c3 11.208-3.668 22.75-14.75 25.708-11.25 3-22.75-3.668-25.75-14.834l-6.5-24.124c-7.624-0.624-14.916-2.5-21.876-5.792l-17.624 17.542c-8.25 8.25-21.5 8.208-29.668 0-8.208-8.208-8.208-21.5 0-29.708l17.542-17.542c-3.292-7-5.208-14.376-5.792-21.958l-24.084-6.416c-11.25-3.084-17.918-14.5-14.916-25.75 3.042-11.166 14.542-17.75 25.792-14.834l23.75 6.46c2.124-3.208 4.5-6.21 7.376-9.002 2.75-2.75 5.75-5.208 8.876-7.25l-6.376-23.792c-3-11.25 3.668-22.834 14.832-25.834 11.252-3 22.668 3.666 25.668 14.876l6.5 24c7.624 0.624 15 2.542 22 5.876l17.582-17.584c8.168-8.248 21.418-8.082 29.668 0.084 8.124 8.124 8.25 21.416 0 29.624l-17.624 17.624c3.376 6.92 5.376 14.376 5.876 22.002l24.124 6.376c11.124 3.042 17.792 14.5 14.792 25.75-3.002 11.12-14.502 17.788-25.794 14.872zM177.124 218.084c-8.208-8.208-21.5-8.208-29.75 0-8.124 8.166-8.124 21.542 0 29.666 8.25 8.166 21.542 8.166 29.75 0s8.126-21.5 0-29.666zM1024 608c0 123.5-100.5 224-224 224-10.624 0-21.124-0.75-31.584-2.25-59.748 81.416-154.040 130.25-256.416 130.25s-196.624-48.834-256.416-130.25c-10.46 1.5-20.96 2.25-31.584 2.25-123.5 0-224-100.5-224-224s100.5-224 224-224c27.376 0 54.168 5 79.418 14.666 57.914-50.5 131.582-78.666 208.582-78.666 77.084 0 150.666 28.166 208.582 78.666 25.25-9.666 52.042-14.666 79.418-14.666 123.5 0 224 100.5 224 224zM708.124 477.334c-46.956-56.584-116.876-93.334-196.124-93.334-79.25 0-149.168 36.75-196.124 93.334-26-18.334-57.626-29.334-91.876-29.334-88.376 0-160 71.624-160 160s71.624 160 160 160c21.624 0 42.124-4.416 60.876-12.166 42.458 82.832 127.706 140.166 227.124 140.166s184.668-57.334 227.082-140.166c18.794 7.75 39.336 12.166 60.918 12.166 88.376 0 160-71.624 160-160s-71.624-160-160-160c-34.25 0-65.832 11-91.876 29.334z" />
<glyph unicode="&#xe90e;" glyph-name="weather" d="M800 832c-10.624 0-21.124-0.75-31.584-2.25-59.748 81.416-154.040 130.25-256.416 130.25s-196.624-48.834-256.416-130.25c-10.46 1.5-20.96 2.25-31.584 2.25-123.5 0-224-100.5-224-224s100.5-224 224-224c27.376 0 54.168 5 79.418 14.666 57.914-50.5 131.582-78.666 208.582-78.666 77.084 0 150.666 28.166 208.582 78.666 25.25-9.666 52.042-14.666 79.418-14.666 123.5 0 224 100.5 224 224s-100.5 224-224 224zM800 448c-19.418 0-38.418 3.5-56.5 10.416l-36 13.834-29-25.334c-46.5-40.582-105.624-62.916-166.5-62.916s-120 22.334-166.5 62.916l-29 25.334-36-13.834c-18-6.916-37.082-10.416-56.5-10.416-88.25 0-160 71.792-160 160s71.75 160 160 160c7.584 0 15-0.542 22.5-1.584l37.916-5.5 22.708 30.916c48.626 66.21 123.294 104.168 204.876 104.168 81.624 0 156.25-37.916 204.834-104.126l22.75-30.958 37.998 5.5c7.418 1.042 14.834 1.584 22.418 1.584 88.25 0 160-71.792 160-160s-71.75-160-160-160zM192 320c-35.376 0-64-28.624-64-64s28.624-64 64-64 64 28.624 64 64-28.624 64-64 64zM512 256c-35.376 0-64-28.624-64-64s28.624-64 64-64 64 28.624 64 64-28.624 64-64 64zM832 320c-35.376 0-64-28.624-64-64s28.624-64 64-64 64 28.624 64 64-28.624 64-64 64zM704 64c-35.376 0-64-28.624-64-64s28.624-64 64-64 64 28.624 64 64-28.624 64-64 64zM320 64c-35.376 0-64-28.624-64-64s28.624-64 64-64 64 28.624 64 64-28.624 64-64 64z" />
<glyph unicode="&#xe90f;" glyph-name="cloudy2" d="M1024 479.998c0 98.334-80 178.292-178.334 178.292-4.792 0-9.542-0.208-14.292-0.582-46.25 57.708-115.958 91.956-191.376 91.956-75.376 0-145.124-34.248-191.376-91.958-4.75 0.376-9.542 0.582-14.376 0.582-98.246 0.002-178.246-79.956-178.246-178.29 0-10.292 1.376-20.208 3-30.084-1.084-1.416-2.376-2.708-3.416-4.166-10.458 1.5-20.958 2.25-31.584 2.25-123.5 0-224-100.498-224-223.998 0-123.502 100.5-224 224-224 27.376 0 54.168 5 79.418 14.666 57.914-50.5 131.582-78.666 208.582-78.666 77.084 0 150.666 28.166 208.582 78.666 25.25-9.666 52.042-14.666 79.418-14.666 123.5 0 224 100.498 224 224 0 51.376-18.084 98.166-47.332 135.998 29.164 31.792 47.332 73.666 47.332 120zM800 64c-34.25 0-65.832 10.998-91.876 29.332-46.958-56.582-116.876-93.332-196.124-93.332-79.25 0-149.168 36.75-196.124 93.332-26-18.334-57.624-29.332-91.876-29.332-88.376 0-160 71.624-160 160s71.624 159.998 160 159.998c21.624 0 42.124-4.376 60.876-12.124 1.124 2.124 2.5 4 3.624 6.042 11.25 20.542 25.124 39.376 41.332 56.084 46.168 47.832 110.334 78 182.168 78 99.418 0 184.668-57.332 227.082-140.124 11.292 4.624 23.336 7.626 35.75 9.624l25.168 2.5c24.668 0 47.75-6.084 68.624-16 22.624-10.832 42.042-26.748 57.292-46.376 21-27.042 34.084-60.708 34.084-97.624 0-88.376-71.624-160-160-160zM931.124 404.75c-36.958 26.916-82 43.248-131.124 43.248-10.624 0-21.124-0.75-31.584-2.25-59.748 81.416-154.042 130.25-256.416 130.25-68.25 0-132.624-22.084-185.876-60.668 14.958 45.708 57.458 78.958 108.124 78.958 15.5 0 30.124-3.124 43.5-8.664 30.376 59.124 91.25 100.040 162.25 100.040s131.916-40.914 162.168-100.040c13.458 5.54 28.166 8.664 43.498 8.664 63.168 0 114.334-51.166 114.334-114.292 0.002-28.956-11.122-55.080-28.874-75.246z" />
<glyph unicode="&#xe910;" glyph-name="ic_nerdfact" horiz-adv-x="1063" d="M742.886 541.885l-10.031 36.040c-2.044 7.060-9.103 11.517-16.348 10.031-3.158-0.742-6.316-1.3-9.475-2.044-6.502 6.316-39.198 37.711-76.723 68.736-24.151 19.877-43.656 34.182-59.632 44.4 18.206 16.72 29.723 40.684 29.723 67.25 0 50.344-41.055 91.4-91.4 91.4s-91.4-41.055-91.4-91.4c0-28.609 13.19-54.246 33.811-70.966-40.684-36.596-80.811-96.602-95.301-119.080-12.632 2.044-19.692 3.529-20.064 3.715-6.873 1.486-13.748-2.229-16.161-8.731-6.873-18.392-12.632-42.914-0.742-54.802 10.404-10.404 87.313-30.839 195.804-30.839 28.609 0 59.632 1.486 91.957 4.83 106.261 11.146 130.040 34.739 133.571 39.198 2.787 3.344 3.715 7.988 2.416 12.261zM530.363 947.983c-277.915 0-504.001-226.084-504.001-504.001 0-101.060 29.723-198.404 86.013-281.817 2.601-3.715 6.873-6.131 11.517-6.131 0 0 0.186 0 0.186 0 4.458 0 8.731 2.229 11.332 5.945 5.76 7.988 140.629 196.732 147.875 207.136 6.873 9.846 29.166 37.897 29.538 38.083 0.186 0.186 0.186 0.371 0.371 0.557 17.091 23.221 44.4 37.154 73.38 37.34 0 0 0.186 0 0.186 0 26.565 0 48.672-7.431 65.763-22.107 5.574-4.83 10.031-9.846 13.19-14.304-11.89 6.502-25.45 10.218-39.756 10.218-45.7 0-82.854-37.154-82.854-82.854 0-39.941 28.423-73.194 65.949-81.182 0.557-1.115 1.3-2.229 2.229-3.344-14.119 2.416-36.411 9.846-50.158 15.419-0.371 0.186-0.557 0.186-0.929 0.371-0.186 0-0.557 0.186-0.742 0.186-3.529 0.929-7.245 0.557-10.404-1.115-3.344-1.671-5.76-4.83-6.873-8.359-6.688-22.478-72.637-162.736-97.531-214.752-2.973-6.316-0.929-13.748 4.83-17.648 83.225-55.917 180.385-85.641 281.073-85.641 101.060 0 198.404 29.723 281.817 86.013 5.76 3.902 7.802 11.332 4.83 17.463-24.151 52.015-88.427 191.717-95.115 214.381-1.115 3.529-3.344 6.688-6.688 8.359s-7.060 2.229-10.589 1.115c-0.557-0.186-1.115-0.371-1.486-0.557v0c-14.304-5.76-36.411-13.004-50.344-15.419 0.929 0.929 1.671 2.044 2.229 3.344 37.526 7.802 65.949 41.241 65.949 81.182 0 45.7-37.154 82.854-82.854 82.854-14.49 0-28.052-3.715-39.756-10.218 3.158 4.458 7.617 9.475 13.19 14.304 17.277 14.675 39.384 22.107 65.763 22.107 0 0 0.186 0 0.186 0 28.794 0 56.289-13.933 73.38-37.34 0.186-0.186 0.186-0.371 0.371-0.557 0.186-0.371 22.664-28.237 29.538-38.083 7.245-10.589 144.345-191.717 150.289-199.519 2.787-3.715 7.060-5.574 11.704-5.574 4.644 0.186 8.731 2.601 11.332 6.316 52.76 81.554 80.625 176.112 80.625 273.642-0.371 278.102-226.643 504.187-504.558 504.187zM371.157 335.863c0 30.28 24.522 54.802 54.802 54.802s54.802-24.522 54.802-54.802-24.522-54.802-54.802-54.802-54.802 24.522-54.802 54.802zM700.159 235.731c17.648-44.213 69.665-156.977 86.384-193.017-76.538-48.857-164.78-74.681-256.18-74.681-91.028 0-179.084 25.636-255.251 74.123 17.277 36.225 70.593 149.361 88.613 193.759 15.976-5.76 41.427-13.748 57.218-13.19 0.186 0 0.557 0 0.742 0 14.304 0 26.008 11.704 26.008 26.008 0 2.416-0.371 4.83-1.115 7.060 24.151 6.316 43.842 23.036 54.246 45.142h62.234c10.404-22.107 30.28-38.827 54.246-45.142-0.742-2.229-1.115-4.458-1.115-7.060 0-14.304 11.704-26.008 26.008-26.008 0.371 0 0.557 0 0.929 0 13.562-0.557 39.569 6.688 57.033 13.004zM692.728 335.863c0-30.28-24.522-54.802-54.802-54.802s-54.802 24.522-54.802 54.802 24.522 54.802 54.802 54.802 54.802-24.708 54.802-54.802zM940.921 202.664c-51.273 67.621-132.084 174.811-137.286 182.242-7.245 10.404-28.052 36.596-30.467 39.384-22.292 30.28-58.146 48.486-95.672 48.486 0 0-0.186 0-0.186 0-75.795 0-108.119-52.015-113.692-70.221-2.787-9.475-2.044-17.277 2.229-23.407 0.186-0.371 0.557-0.742 0.929-1.115-4.273-7.060-7.431-14.862-9.289-23.036h-51.087c-2.044 8.173-5.201 15.976-9.289 23.036 0.371 0.371 0.557 0.742 0.929 1.115 4.273 6.131 5.015 13.933 2.229 23.407-5.387 18.206-37.897 70.221-113.692 70.221 0 0-0.186 0-0.186 0-37.711 0-73.38-18.206-95.672-48.486-2.416-2.973-23.221-29.166-30.467-39.384-5.76-8.359-101.431-142.301-135.613-190.044-46.072 74.866-70.221 160.507-70.221 249.121 0 262.496 213.638 476.135 476.135 476.135s476.135-213.638 476.135-476.135c-0.186-85.456-22.85-168.309-65.763-241.318z" />
<glyph unicode="&#xe911;" glyph-name="ic_birdfact" horiz-adv-x="1063" d="M336.155 312.151c37.135-16.525 93.020-14.296 109.173 1.113 15.224 14.296 7.241 37.135-8.726 41.59-12.997 3.713-18.752 0.557-29.149-0.371-25.993-2.043-56.629 5.385-80.951 31.378-20.238 21.723-26.366 50.688-25.065 72.968 2.971 48.831 39.361 76.867 60.899 85.965 29.149 12.254 64.241 11.325 94.691-5.385 43.632-23.952 56.814 16.154 39.918 27.665-15.782 10.583-50.688 37.877-115.857 33.607-28.222-1.858-70.554-6.684-108.802-49.759-37.877-42.703-168.959-320.094-173.786-346.646-1.113-6.499 49.944-110.287 185.112-189.196 0.371-0.186-39.547 112.329-8.354 216.305 18.752 62.756 59.6 81.322 60.899 80.766zM806.267 550.92c-38.062 43.075-80.58 47.903-108.802 49.759-64.985 4.27-100.076-22.838-115.857-33.607-16.896-11.511-3.713-51.802 39.918-27.665 30.45 16.711 65.542 17.638 94.691 5.385 21.537-9.099 57.929-36.949 60.899-85.965 1.299-22.279-4.641-51.431-25.065-72.968-24.508-26.179-54.959-33.421-80.951-31.378-10.398 0.742-16.154 3.899-29.149 0.371-15.968-4.455-23.952-27.294-8.726-41.59 16.154-15.224 72.040-17.638 109.173-1.113 1.299 0.557 42.147-18.010 61.085-80.951 31.193-103.975-8.726-216.49-8.354-216.305 135.167 79.096 186.225 182.883 185.112 189.196-4.827 26.737-136.095 304.127-173.972 346.831zM401.138 531.983c-43.26 0-78.538-35.277-78.538-78.538s35.277-78.538 78.538-78.538c43.26 0 78.538 35.277 78.538 78.538-0.186 43.26-35.277 78.538-78.538 78.538zM401.138 393.845c-32.863 0-59.785 26.737-59.785 59.785s26.737 59.785 59.785 59.785 59.785-26.737 59.785-59.785-26.923-59.785-59.785-59.785zM758.922 453.445c0 43.26-35.277 78.538-78.538 78.538s-78.538-35.277-78.538-78.538c0-43.26 35.277-78.538 78.538-78.538 43.26 0.186 78.538 35.277 78.538 78.538zM620.599 453.445c0 32.863 26.737 59.785 59.785 59.785s59.785-26.737 59.785-59.785-26.737-59.785-59.785-59.785-59.785 26.923-59.785 59.785zM538.719 492.993c-0.557 0-1.113 0.186-1.67 0.186 0 0-0.186 0-0.186 0-0.557 0-1.113 0-1.67-0.186-19.123-1.299-33.978-17.082-33.978-36.39 0-3.713 0.557-7.241 1.67-10.769 0-0.186 0.186-0.557 0.186-0.742l25.251-63.498c1.484-3.528 4.827-5.756 8.54-5.756 0.186 0 0.186 0 0.371 0 3.899 0.186 7.241 2.785 8.54 6.499l24.879 62.756c0.186 0.186 0.186 0.557 0.186 0.742 1.113 3.528 1.67 7.055 1.67 10.769 0.186 19.31-14.667 35.091-33.792 36.39zM553.202 451.774l-16.34-41.033-16.34 41.033c-0.371 1.67-0.742 3.157-0.742 4.827 0 9.47 7.426 17.267 17.082 17.638 9.47-0.371 17.082-8.169 17.082-17.638 0-1.67-0.186-3.342-0.742-4.827zM724.387 625.188c-49.202 47.16-116.043 75.939-189.567 75.939s-140.365-28.964-189.567-75.939c15.41 3.157 31.564 4.827 47.903 4.827 53.286 0 102.303-17.638 141.665-47.532 39.361 29.707 88.563 47.532 141.665 47.532 16.34 0.186 32.491-1.484 47.903-4.827zM420.819 179.397c11.325-11.325 29.894-11.325 41.219 0 6.128 6.128 9.099 14.482 8.354 22.652h-58.115c-0.371-8.169 2.414-16.525 8.54-22.652zM555.8 179.397c6.128 6.128 9.099 14.482 8.354 22.652h-58.115c-0.557-8.169 2.229-16.525 8.354-22.652 11.696-11.325 30.079-11.325 41.404 0zM608.53 179.397c11.325-11.325 29.894-11.325 41.219 0 6.128 6.128 9.099 14.482 8.354 22.652h-58.115c-0.557-8.169 2.229-16.525 8.54-22.652zM420.819 114.969c11.325-11.325 29.894-11.325 41.219 0 6.128 6.128 9.099 14.482 8.354 22.652h-58.115c-0.371-8.169 2.414-16.525 8.54-22.652zM555.8 114.969c6.128 6.128 9.099 14.482 8.354 22.652h-58.115c-0.557-8.169 2.229-16.525 8.354-22.652 11.696-11.511 30.079-11.511 41.404 0zM608.53 114.969c11.325-11.325 29.894-11.325 41.219 0 6.128 6.128 9.099 14.482 8.354 22.652h-58.115c-0.557-8.169 2.229-16.525 8.54-22.652zM508.084 52.584c6.128 6.128 9.099 14.482 8.354 22.652h-58.115c-0.557-8.169 2.229-16.525 8.354-22.652 11.511-11.511 29.894-11.511 41.404 0zM560.628 52.584c11.325-11.325 29.894-11.325 41.219 0 6.128 6.128 9.099 14.482 8.354 22.652h-58.115c-0.371-8.169 2.414-16.525 8.54-22.652zM534.82 949.554c-277.946 0-504.278-226.144-504.278-504.278 0-69.255 13.74-136.467 41.033-199.408l1.67-3.899 1.67 3.899 10.398 24.137 0.371 0.742-0.186 0.742c-21.537 55.33-32.306 113.815-32.306 173.972 0 265.692 216.119 481.811 481.811 481.811s481.811-216.119 481.811-481.811c0-59.043-10.583-116.786-31.378-171.372l-0.186-0.742 0.371-0.742 10.026-24.323 1.67-4.084 1.67 4.084c26.551 62.385 39.918 128.669 39.918 197.181 0 277.946-226.144 504.093-504.093 504.093zM766.72 20.835l-0.928 1.67-1.67-0.928c-69.997-37.877-149.278-57.929-229.301-57.929-75.754 0-148.35 17.082-215.561 50.873l-3.157 1.67 0.557-3.528 3.528-22.465 0.186-0.928 0.928-0.371c67.026-31.378 138.881-47.346 213.705-47.346 79.096 0 158.189 18.937 228.373 54.587l0.928 0.371 0.186 0.928 3.342 21.352 0.186 0.557-0.371 0.557-0.928 0.928z" />
<glyph unicode="&#xe912;" glyph-name="alberta" horiz-adv-x="704" d="M587.521-57.344h-208.896c-31.744 0-36.864 33.792-41.984 66.56-7.168 40.96-15.36 92.16-59.392 115.712-4.096 2.048-8.192 4.096-12.288 6.144-24.576 11.264-64.512 30.72-64.512 72.704 0 9.216-36.864 28.672-77.824 38.912l-16.384 4.096 63.488 706.56 428.032-13.312-10.24-997.376zM382.721-17.408h165.888l7.168 919.552-351.232 10.24-56.32-635.904c33.792-10.24 91.136-32.768 91.136-72.704 0-15.36 18.432-25.6 41.984-36.864 5.12-2.048 10.24-5.12 14.336-7.168 61.44-33.792 72.704-100.352 79.872-144.384 1.024-11.264 4.096-26.624 7.168-32.768z" />
<glyph unicode="&#xe913;" glyph-name="close" d="M810 664.667l-238-238 238-238-60-60-238 238-238-238-60 60 238 238-238 238 60 60 238-238 238 238z" />
<glyph unicode="&#xe914;" glyph-name="chevron-thin-left" d="M711.219 80.998c13.722-13.926 13.722-36.301 0-50.125s-35.891-13.875-49.613 0l-400.896 404.89c-13.722 13.824-13.722 36.198 0 50.125l400.896 404.89c13.722 13.824 35.891 13.824 49.613 0 13.722-13.875 13.722-36.301 0-50.125l-365.619-379.853 365.619-379.802z" />
<glyph unicode="&#xe915;" glyph-name="chevron-thin-right" d="M678.4 460.8l-365.619 379.904c-13.722 13.824-13.722 36.198 0 50.125 13.722 13.824 35.891 13.824 49.613 0l400.896-404.89c13.722-13.875 13.722-36.301 0-50.125l-400.896-404.89c-13.722-13.875-35.891-13.824-49.613 0-13.722 13.773-13.722 36.198 0 50.125l365.619 379.75z" />
<glyph unicode="&#xe916;" glyph-name="ic_nest" d="M92.16 370.176l380.928-66.56 132.096 53.248-585.728 173.056c3.072-57.344 29.696-111.616 72.704-159.744zM636.928 369.152l367.616 147.456c1.024 8.192 2.048 16.384 2.048 25.6 0 31.744-5.12 74.752-36.864 101.376-51.2 43.008-229.376 88.064-461.824 88.064-249.856 0-440.32-56.32-467.968-96.256-22.528-31.744-20.48-60.416-20.48-82.944l617.472-183.296zM84.992 631.296v0c0 1.024 1.024 1.024 2.048 2.048 62.464 37.888 228.352 74.752 420.864 74.752 245.76 0 454.656-59.392 454.656-105.472s-211.968-83.968-457.728-83.968-444.416 36.864-444.416 83.968c0 9.216 9.216 19.456 24.576 28.672zM476.16 281.088l-134.144-54.272c54.272-14.336 112.64-22.528 173.056-22.528 72.704 0 143.36 12.288 207.872 33.792l-246.784 43.008zM670.72 359.936l186.368-55.296c74.752 50.176 126.976 116.736 144.384 187.392l-330.752-132.096zM832.512 289.28l-194.56 57.344-124.928-50.176 247.808-43.008c25.6 10.24 49.152 22.528 71.68 35.84zM435.2 288.256l-316.416 55.296c50.176-45.056 114.688-81.92 189.44-106.496l126.976 51.2z" />
<glyph unicode="&#xe920;" glyph-name="logo" horiz-adv-x="2029" d="M668.202 906.32c0 0-3.063 6.126-6.471 8.171s1.7 7.489-10.897 10.897c-16.341 4.426-30.311-3.745-48.352-18.386s-48.016-30.311-58.913-41.208c-3.745-3.745-4.772-3.408-4.772-3.408s-73.218-7.834-68.792-9.879c4.426-2.045 3.408-6.471 19.068-4.090s46.316 1.363 56.532-1.018c10.216-2.381 9.534-4.090 21.449-13.624 8.171-6.807 12.261-10.897 24.521-12.597 2.381-2.381 9.198-9.534 11.234-11.915h-91.941c-7.834 0-14.306-6.471-14.306-14.306v-335.091c0-7.834 6.471-14.306 14.306-14.306h106.592c7.834 0 14.306 6.471 14.306 14.306v335.091c0 7.834-6.471 14.306-14.306 14.306h-9.198c-2.381 2.381-7.489 8.171-10.561 11.579 11.234-0.682 20.777 2.045 31.674 8.852 11.579 7.153 22.813 15.324 26.903 32.010s3.408 42.226 5.444 40.863c0-0.336 7.489 2.727 6.471 3.745zM474.777-40.714h-93.65c-5.108 0-9.879 2.381-13.279 6.126l-215.22 245.185v-238.714c0-6.807-5.444-12.261-12.261-12.261h-102.157c-6.807 0-12.261 5.444-12.261 12.261v425.669c0 6.807 5.444 12.261 12.261 12.261h93.304c5.108 0 9.879-2.045 13.279-6.126l214.538-243.822v237.696c0 6.807 5.444 12.261 12.261 12.261h103.184c6.807 0 12.261-5.444 12.261-12.261v-426.014c0-6.807-5.444-12.261-12.261-12.261zM1855.319 230.349c-16.687 0-27.584-6.126-27.584-17.368 0-40.863 190.017-22.813 190.017-147.109 0-74.918-65.039-120.552-159.715-120.552-60.276 0-116.126 15.324-162.097 45.289-5.444 3.408-7.153 10.216-4.426 16.005l30.647 63.003c3.063 6.471 11.234 8.852 17.368 5.108 41.89-24.858 83.77-37.8 120.552-37.8 18.050 0 29.965 5.444 29.965 16.687 0 41.544-185.936 21.449-185.936 145.746 0 76.281 63.684 121.57 155.289 121.57 50.742 0 102.157-13.279 148.818-38.136 6.126-3.408 8.516-10.897 5.108-16.687l-33.374-63.339c-3.063-5.789-10.216-8.171-16.341-5.444-44.607 22.131-81.389 33.028-108.292 33.028zM1096.259 257.933v37.118c0 11.234-9.198 20.431-20.431 20.431h-73.555c58.231-48.016 34.737-79.344 34.737-79.344s28.947-30.992 63.339-40.181c31.674-8.516 1.363-25.885-37.464-14.306s-45.971 22.813-45.971 22.813-27.584 1.018-55.505 17.368v-257.782c0-6.807 5.444-12.261 12.261-12.261h110.337c6.807 0 12.261 5.444 12.261 12.261v161.415c0 50.060 40.181 79.008 103.184 74.582 6.126-0.336 11.234 4.426 11.234 10.216v99.439c0 6.126-5.108 10.897-11.234 10.561-44.271-3.063-79.69-25.203-103.184-62.321zM710.428 475.198c-7.489 3.063 14.306 11.234 26.221 17.705l49.033 50.060 14.987-9.534c-7.153 42.571-9.879 87.179 4.426 109.991 13.624 22.131 28.266 40.181 40.526 54.487 6.471 21.113 18.050 33.028 18.050 33.028l4.426-9.534c8.516 8.171 13.96 12.597 13.96 12.597s16.687-15.669 34.392-40.181c6.807 0.336 13.624 0.336 21.113 0 6.126-0.336 11.579 4.426 11.579 10.561v98.758c0 6.126-5.444 11.234-11.579 10.897-44.271-3.408-79.344-25.539-102.839-62.321v46.652c0 5.789-4.772 10.561-10.561 10.561h-113.736c-5.789 0-10.561-4.772-10.561-10.561v-353.141h6.471c2.727 5.108 15.669 24.858 4.090 29.965zM745.845 445.233h75.6c-4.426 14.642-11.234 39.499-17.023 67.084l-19.068 13.624-39.499-38.136c1.018-14.987 0.336-40.863 0.336-40.863l-0.336-1.7zM356.951 694.845c48.697 13.96 79.69 53.469 79.69 101.139 0 72.191-70.147 118.507-179.801 118.507h-216.92c-7.489 0-13.279-6.126-13.279-13.279v-442.355c0-7.489 6.126-13.279 13.279-13.279h226.799c112.382 0 184.573 50.742 184.573 131.104 0 59.249-36.782 106.247-94.331 118.162zM144.801 767.379c-28.602 1.018-28.266-19.068-28.266-19.068s-10.561 7.489-6.471 30.992c5.108 32.347 44.607 23.158 48.352 26.566 32.692 30.311 73.9 13.279 90.923 0 34.392-26.903 47.679-83.434 47.679-83.434l-123.615 1.7c0 0-0.336 13.96-4.772 24.858-4.772 11.579-13.279 18.050-23.84 18.386zM249.341 549.096h-84.452v86.152h84.116c35.419 0 57.55-16.005 57.55-41.544 0.336-27.239-21.795-44.607-57.213-44.607zM1222.937 929.814v-162.778c-24.858 29.965-60.276 46.652-102.839 46.652-99.776 0-165.16-72.873-165.16-184.573 0-114.417 66.747-188.654 168.568-188.654 41.544 0 75.6 16.687 99.776 46.316v-29.629c0-6.471 5.444-11.915 11.915-11.915h111.355c6.471 0 11.915 5.444 11.915 11.915v472.666c0 6.471-5.444 11.915-11.915 11.915h-111.355c-6.807 0-12.261-5.444-12.261-11.915zM1182.075 700.977c-2.727-5.444-13.279-9.534-13.279-13.96 0-4.090-17.368-92.287-24.521-103.184s-22.131-18.386-41.544-14.987c-8.852 1.363-22.476 8.852-28.266 13.96s-17.705 17.368-19.068 18.732c-1.018 1.018-16.341 1.7-23.84 2.727-2.727 0.336 19.068 8.171 24.521 8.171 1.018 0 6.471 12.597 20.431 16.341s14.306 3.745 16.687 5.789 14.987 18.732 22.131 21.113c7.153 2.727 27.584 22.813 32.010 26.221s17.705 23.494 19.75 23.494c2.045-0.336-10.897-21.113-9.198-20.431 1.7 1.018 9.534 13.624 14.987 18.386 5.108 5.108 6.807 8.171 7.489 5.789 1.018-2.045 4.090-2.727 1.7-8.171zM740.401 46.465c-29.965 0-52.787 16.005-65.039 43.589l226.117 49.379c6.126 1.363 10.216 6.807 9.879 12.942-5.789 103.865-79.008 167.886-187.636 167.886-117.826-0.682-193.425-75.6-193.425-188.654 0-111.018 79.69-184.573 199.897-184.573 65.384 0 119.871 21.449 161.751 64.702 4.772 5.108 4.772 13.279-0.682 18.050l-57.213 51.078c-4.772 4.090-11.915 4.090-16.687 0-24.176-21.795-51.078-34.392-76.963-34.392zM669.227 239.547c0.336 0.682 9.198 2.045 9.198 2.045s6.471 14.987 24.858 14.306c18.050-0.682 39.163-11.915 56.532-27.92 2.381-2.045 9.198-8.516 16.687-15.669 6.807-1.363 59.595-12.942 61.976-18.050 0.682-1.018-10.897-2.727-10.897-2.727s-22.131 5.789-36.782 7.153c8.171-8.171 13.624-14.306 10.561-13.279-9.198 3.408-22.131 7.153-23.158 7.153-3.745 0 2.727-9.198-12.597-20.777s-34.737-13.279-50.742-7.153c-16.005 6.126-25.203 17.023-30.647 26.903s-3.745 30.311-3.745 33.028c0 2.045-2.727 5.444-3.063 9.879-3.745 1.363-8.171 4.426-8.171 5.108zM1498.434 435.354v-162.097c-24.858 29.965-60.276 46.652-102.839 46.652-99.776 0-165.16-72.873-165.16-184.573 0-114.417 66.747-188.654 168.568-188.654 41.544 0 75.6 16.687 99.776 46.316v-28.947c0-6.807 5.444-12.261 12.261-12.261h109.991c6.807 0 12.261 5.444 12.261 12.261v471.303c0 6.807-5.444 12.261-12.261 12.261h-110.337c-6.807 0-12.261-5.444-12.261-12.261zM1452.463 175.188c-4.426-1.018-13.624-4.426-14.987-5.444s0.336-5.444-4.090-11.234c-1.363-2.045 10.561-25.885-7.489-42.226-18.050-16.687-22.476-13.279-24.858-13.624-2.727-0.336-2.727-0.336-2.727-0.336s-8.171-38.818-9.534-39.163c-1.363-0.336-9.534-2.045-6.471 10.897s9.534 31.674 9.534 31.674-1.7 13.279 0 18.050c1.7 4.772-12.261 12.597-14.987 16.005-2.727 3.063-10.897 4.772-13.624 11.579s-19.75 11.915-20.777 18.386c-1.018 6.471-7.153 7.489-6.807 10.561 0.682 3.063-6.807 5.789-6.471 8.852s76.963-18.732 80.026-28.947c0 0-0.682 13.279 9.879 14.987s16.005-2.727 16.005-2.727 15.669 10.561 34.055 4.772c19.068-5.789-2.045 1.363-16.687-2.045z" />
<glyph unicode="&#xe921;" glyph-name="home" d="M1009.664 547.328l-470.016 362.496c-1.024 0-1.024 1.024-2.048 1.024-1.024 1.024-2.048 1.024-3.072 2.048s-2.048 1.024-3.072 1.024c-1.024 0-2.048 1.024-3.072 1.024s-2.048 1.024-3.072 1.024c-1.024 0-2.048 0-3.072 1.024-1.024 0-2.048 0-4.096 0-1.024 0-2.048 0-3.072 0s-2.048 0-3.072-1.024c-1.024 0-2.048 0-3.072-1.024-1.024 0-2.048-1.024-3.072-1.024s-2.048-1.024-3.072-1.024c-1.024-1.024-2.048-1.024-4.096-2.048-1.024 0-1.024-1.024-2.048-1.024l-359.424-276.48c-5.12-2.048-10.24-6.144-13.312-10.24l-98.304-75.776c-15.36-12.288-18.432-34.816-6.144-51.2 7.168-9.216 17.408-14.336 28.672-14.336 8.192 0 15.36 2.048 22.528 7.168l60.416 47.104 116.736-463.872c12.288-52.224 58.368-88.064 111.616-88.064h320.512c53.248 0 98.304 35.84 110.592 87.040l120.832 462.848 57.344-44.032c6.144-5.12 14.336-7.168 22.528-7.168 11.264 0 21.504 5.12 28.672 14.336 9.216 15.36 6.144 37.888-10.24 50.176zM717.824 89.6c-4.096-18.432-20.48-31.744-39.936-31.744h-320.512c-19.456 0-35.84 13.312-40.96 32.768l-123.904 494.592 325.632 249.856 328.704-252.928-129.024-492.544zM642.048 467.456c0-70.127-56.849-126.976-126.976-126.976s-126.976 56.849-126.976 126.976c0 70.127 56.849 126.976 126.976 126.976s126.976-56.849 126.976-126.976zM517.12 268.8c-39.936 0-72.704-32.768-72.704-72.704s32.768-72.704 72.704-72.704 72.704 32.768 72.704 72.704-32.768 72.704-72.704 72.704zM517.12 160.256c-19.456 0-35.84 16.384-35.84 35.84s16.384 35.84 35.84 35.84c19.456 0 35.84-16.384 35.84-35.84s-15.36-35.84-35.84-35.84z" />
<glyph unicode="&#xe98b;" glyph-name="enlarge2" d="M462.848 419.328c-8.192 8.192-20.48 8.192-28.672 0l-302.080-302.080v238.592c0 11.264-9.216 20.48-20.48 20.48 0 0 0 0 0 0-11.264 0-20.48-9.216-20.48-20.48v-305.152l305.152-1.024c0 0 0 0 0 0 11.264 0 20.48 9.216 20.48 20.48s-9.216 20.48-20.48 20.48l-232.448 1.024 299.008 299.008c8.192 8.192 8.192 21.504 0 28.672zM591.872 542.208c8.192-8.192 20.48-8.192 28.672 0l303.104 302.080v-238.592c0-11.264 9.216-20.48 20.48-20.48 0 0 0 0 0 0 11.264 0 20.48 9.216 20.48 20.48v305.152l-306.176 2.048c0 0 0 0 0 0-11.264 0-20.48-9.216-20.48-20.48s9.216-20.48 20.48-20.48l232.448-1.024-299.008-299.008c-8.192-8.192-8.192-21.504 0-29.696z" />
<glyph unicode="&#xe9bd;" glyph-name="menu" d="M64 768h896v-192h-896zM64 512h896v-192h-896zM64 256h896v-192h-896z" />
<glyph unicode="&#xea3c;" glyph-name="arrow-right2" d="M621.254 82.746l320 320c24.994 24.992 24.994 65.516 0 90.51l-320 320c-24.994 24.992-65.516 24.992-90.51 0-24.994-24.994-24.994-65.516 0-90.51l210.746-210.746h-613.49c-35.346 0-64-28.654-64-64s28.654-64 64-64h613.49l-210.746-210.746c-12.496-12.496-18.744-28.876-18.744-45.254s6.248-32.758 18.744-45.254c24.994-24.994 65.516-24.994 90.51 0z" />
<glyph unicode="&#xf003;" glyph-name="envelope-o" d="M950.857 91.428v438.857c-12-13.714-25.143-26.286-39.429-37.714-81.714-62.857-164-126.857-243.429-193.143-42.857-36-96-80-155.429-80h-1.143c-59.429 0-112.571 44-155.429 80-79.429 66.286-161.714 130.286-243.429 193.143-14.286 11.429-27.429 24-39.429 37.714v-438.857c0-9.714 8.571-18.286 18.286-18.286h841.143c9.714 0 18.286 8.571 18.286 18.286zM950.857 692c0 14.286 3.429 39.429-18.286 39.429h-841.143c-9.714 0-18.286-8.571-18.286-18.286 0-65.143 32.571-121.714 84-162.286 76.571-60 153.143-120.571 229.143-181.143 30.286-24.571 85.143-77.143 125.143-77.143h1.143c40 0 94.857 52.571 125.143 77.143 76 60.571 152.571 121.143 229.143 181.143 37.143 29.143 84 92.571 84 141.143zM1024 713.143v-621.714c0-50.286-41.143-91.429-91.429-91.429h-841.143c-50.286 0-91.429 41.143-91.429 91.429v621.714c0 50.286 41.143 91.429 91.429 91.429h841.143c50.286 0 91.429-41.143 91.429-91.429z" />
<glyph unicode="&#xf02d;" glyph-name="book" horiz-adv-x="953" d="M915.456 923.209c-1.024 0-2.048 0-4.096 0-41.984 0-357.376-92.16-497.664-269.312-122.88-155.648-131.072-364.544-110.592-442.368-1.024-1.024-1.024-2.048-2.048-3.072-37.888-65.536-61.44-184.32-61.44-184.32l24.576-53.248 26.624 53.248c0 0 5.12 61.44 48.128 153.6 3.072 0 6.144 0 10.24 0 81.92 0 288.768 61.44 410.624 216.064 146.432 183.296 176.128 522.24 155.648 529.408zM719.872 424.521c-101.376-128-273.408-188.416-355.328-195.584 63.488 116.736 132.096 179.2 133.12 180.224 10.24 10.24 9.216 26.624-1.024 35.84-10.24 10.24-26.624 9.216-35.84-1.024-4.096-4.096-51.2-60.416-114.688-160.768-1.024 83.968 19.456 227.328 108.544 339.968 45.056 57.344 112.64 105.472 183.296 144.384-1.024-19.456-1.024-45.056 2.048-78.848 1.024-10.24 10.24-18.432 20.48-18.432 1.024 0 1.024 0 2.048 0 11.264 1.024 19.456 11.264 18.432 22.528-4.096 53.248-2.048 83.968 1.024 98.304 72.704 35.84 142.336 60.416 187.392 73.728-7.168-95.232-46.080-309.248-149.504-440.32z" />
<glyph unicode="&#xf16d;" glyph-name="instagram" horiz-adv-x="878" d="M585.143 438.857c0 80.571-65.714 146.286-146.286 146.286s-146.286-65.714-146.286-146.286 65.714-146.286 146.286-146.286 146.286 65.714 146.286 146.286zM664 438.857c0-124.571-100.571-225.143-225.143-225.143s-225.143 100.571-225.143 225.143 100.571 225.143 225.143 225.143 225.143-100.571 225.143-225.143zM725.714 673.143c0-29.143-23.429-52.571-52.571-52.571s-52.571 23.429-52.571 52.571 23.429 52.571 52.571 52.571 52.571-23.429 52.571-52.571zM438.857 798.857c-64 0-201.143 5.143-258.857-17.714-20-8-34.857-17.714-50.286-33.143s-25.143-30.286-33.143-50.286c-22.857-57.714-17.714-194.857-17.714-258.857s-5.143-201.143 17.714-258.857c8-20 17.714-34.857 33.143-50.286s30.286-25.143 50.286-33.143c57.714-22.857 194.857-17.714 258.857-17.714s201.143-5.143 258.857 17.714c20 8 34.857 17.714 50.286 33.143s25.143 30.286 33.143 50.286c22.857 57.714 17.714 194.857 17.714 258.857s5.143 201.143-17.714 258.857c-8 20-17.714 34.857-33.143 50.286s-30.286 25.143-50.286 33.143c-57.714 22.857-194.857 17.714-258.857 17.714zM877.714 438.857c0-60.571 0.571-120.571-2.857-181.143-3.429-70.286-19.429-132.571-70.857-184s-113.714-67.429-184-70.857c-60.571-3.429-120.571-2.857-181.143-2.857s-120.571-0.571-181.143 2.857c-70.286 3.429-132.571 19.429-184 70.857s-67.429 113.714-70.857 184c-3.429 60.571-2.857 120.571-2.857 181.143s-0.571 120.571 2.857 181.143c3.429 70.286 19.429 132.571 70.857 184s113.714 67.429 184 70.857c60.571 3.429 120.571 2.857 181.143 2.857s120.571 0.571 181.143-2.857c70.286-3.429 132.571-19.429 184-70.857s67.429-113.714 70.857-184c3.429-60.571 2.857-120.571 2.857-181.143z" />
<glyph unicode="&#xf1e5;" glyph-name="binoculars2" d="M978.944 438.857c-6.144 11.264-56.32 111.616-93.184 185.344-58.368 116.736-66.56 132.096-69.632 138.24-22.528 37.888-49.152 63.488-80.896 76.8-9.216 29.696-37.888 52.224-71.68 52.224-38.912 0-71.68-29.696-74.752-68.608v0-10.24c-29.696-26.624-49.152-65.536-49.152-108.544v-8.192h-55.296v9.216c0 43.008-19.456 81.92-49.152 108.544v10.24c-3.072 38.912-35.84 68.608-74.752 68.608-33.792 0-61.44-21.504-71.68-52.224-31.744-13.312-58.368-38.912-80.896-76.8-3.072-5.12-11.264-21.504-69.632-138.24-35.84-74.752-86.016-175.104-93.184-186.368-20.48-35.84-31.744-76.8-31.744-117.76 0-130.048 105.472-235.52 235.52-235.52s235.52 105.472 235.52 235.52v109.568h55.296v-109.568c0-130.048 105.472-235.52 235.52-235.52s235.52 105.472 235.52 235.52c0 40.96-11.264 81.92-31.744 117.76zM251.904 735.817c20.48 36.864 47.104 62.464 88.064 62.464 51.2 0 93.184-41.984 93.184-93.184 0-3.072 0-168.96 0-281.6-38.912 61.44-106.496 102.4-184.32 102.4-44.032 0-84.992-13.312-119.808-35.84 47.104 94.208 119.808 241.664 122.88 245.76zM248.832 474.697c92.16 0 166.912-74.752 166.912-166.912s-74.752-166.912-166.912-166.912c-92.16 0-166.912 74.752-166.912 166.912s74.752 166.912 166.912 166.912zM535.552 481.865h-50.176v163.84h50.176v-163.84zM943.104 307.785c0-92.16-74.752-166.912-166.912-166.912s-166.912 74.752-166.912 166.912 74.752 166.912 166.912 166.912 166.912-74.752 166.912-166.912zM772.096 735.817c3.072-5.12 75.776-151.552 122.88-246.784-34.816 22.528-75.776 35.84-119.808 35.84-77.824 0-146.432-40.96-184.32-102.4 0 112.64 0 278.528 0 281.6 0 51.2 41.984 93.184 93.184 93.184 40.96 1.024 67.584-24.576 88.064-61.44z" />
<glyph unicode="&#xf278;" glyph-name="map-o" horiz-adv-x="1170" d="M990.646 503.369c-12.288 6.144-23.552 13.312-35.84 19.456 8.192 10.24 16.384 20.48 24.576 29.696 16.384 18.432-11.264 46.080-27.648 27.648-11.264-13.312-21.504-26.624-31.744-39.936-13.312 6.144-27.648 10.24-41.984 13.312-24.576 4.096-34.816-32.768-10.24-36.864 10.24-2.048 19.456-4.096 28.672-8.192-9.216-14.336-19.456-28.672-27.648-43.008-12.288-21.504 20.48-40.96 32.768-19.456 9.216 15.36 19.456 30.72 29.696 46.080 13.312-7.168 26.624-15.36 38.912-21.504 22.528-12.288 41.984 20.48 20.48 32.768zM1059.254 876.105v0c-277.504 68.608-278.528 67.584-281.6 67.584l-364.544-64.512-282.624 63.488c-6.144 2.048-13.312 0-19.456-4.096-5.12-4.096-8.192-11.264-8.192-18.432v-477.184h-2.048l2.048-9.216v-420.864c0-11.264 8.192-20.48 18.432-22.528l301.056-61.44c2.048 0 4.096-1.024 6.144-1.024s3.072 0 5.12 0l333.824 58.368 282.624-57.344c7.168-1.024 13.312 0 19.456 5.12 5.12 4.096 8.192 11.264 8.192 17.408v903.168c-1.024 10.24-8.192 19.456-18.432 21.504zM380.342 1.609c0 0-1.024-1.024-2.048 0l-211.968 41.984c-1.024 0-1.024 1.024-1.024 2.048 0 0 0 416.768 0 659.456 7.168-8.192 23.552-16.384 33.792-15.36 9.216 0 16.384 6.144 11.264 21.504-2.048 7.168-9.216 18.432-23.552 23.552s-20.48 18.432-20.48 18.432 0 1.024-1.024 2.048c0 58.368 0 101.376 0 115.712 0 0 0 0 0 0h2.048c3.072-1.024 140.288-31.744 211.968-47.104 1.024 0 2.048-1.024 2.048-2.048v-185.344c-5.12 2.048-8.192 3.072-8.192 3.072s-11.264 11.264-18.432 12.288c-8.192 0-14.336-7.168-13.312-15.36s11.264-13.312 11.264-13.312 13.312-6.144 18.432-19.456c2.048-6.144 6.144-11.264 9.216-14.336v-584.704c1.024-2.048 1.024-3.072 0-3.072zM733.622 44.617l-287.744-50.176c-1.024 0-2.048 0-2.048 1.024s-1.024 1.024-1.024 2.048v535.552c1.024 0 1.024 0 1.024 0s13.312-5.12 28.672-7.168c10.24-1.024 29.696 6.144 35.84 14.336 6.144 7.168 6.144 16.384-8.192 22.528-6.144 3.072-19.456 5.12-33.792-2.048-10.24-5.12-20.48-4.096-24.576-3.072v262.144c0 1.024 1.024 2.048 2.048 2.048l287.744 51.2c0 0 0 0 0 0 1.024 0 1.024 0 2.048-1.024 0 0 1.024-1.024 1.024-2.048v-645.12c-6.144 2.048-13.312-3.072-15.36-9.216-2.048-7.168 4.096-17.408 4.096-17.408s9.216-11.264 8.192-25.6c-1.024-7.168 1.024-13.312 3.072-18.432v-107.52c1.024-1.024 1.024-2.048-1.024-2.048zM1015.222 3.657c0-1.024 0-2.048-1.024-2.048 0 0-1.024-1.024-2.048 0l-211.968 41.984c-1.024 0-2.048 1.024-2.048 2.048v25.6c9.216-2.048 21.504-3.072 28.672 0 8.192 3.072 12.288 11.264 3.072 23.552-4.096 6.144-15.36 13.312-30.72 14.336 0 0-1.024 0-1.024 0v764.928c0 1.024 0 2.048 1.024 2.048 0 0 1.024 1.024 1.024 1.024s0 0 1.024 0l211.968-52.224c1.024 0 2.048-1.024 2.048-2.048v-819.2zM316.854 617.033c-14.336 5.12-20.48 18.432-20.48 18.432s-6.144 10.24-13.312 11.264c-8.192 1.024-16.384-4.096-15.36-13.312 0-7.168 12.288-19.456 12.288-19.456s5.12-13.312 14.336-26.624c6.144-8.192 24.576-17.408 34.816-17.408 9.216 0 16.384 6.144 11.264 21.504-2.048 8.192-9.216 19.456-23.552 25.6zM291.254 698.953c0 11.264-8.192 28.672-16.384 34.816-12.288 9.216-25.6 14.336-25.6 14.336s-11.264 11.264-18.432 12.288c-8.192 0-14.336-7.168-13.312-15.36s11.264-13.312 11.264-13.312 13.312-6.144 18.432-19.456c5.12-14.336 16.384-21.504 23.552-23.552 14.336-6.144 20.48 1.024 20.48 10.24zM546.23 621.129c-8.192 7.168-26.624 13.312-36.864 11.264-15.36-3.072-27.648-10.24-27.648-10.24s-16.384-1.024-21.504-6.144c-6.144-6.144-4.096-15.36 3.072-20.48 6.144-4.096 17.408 0 17.408 0s13.312 6.144 26.624 1.024c14.336-5.12 26.624-2.048 32.768 2.048 13.312 7.168 12.288 16.384 6.144 22.528zM608.694 472.649c-1.024 7.168-6.144 19.456-18.432 27.648-13.312 8.192-16.384 22.528-16.384 22.528s-4.096 11.264-11.264 14.336c-8.192 3.072-16.384-1.024-17.408-10.24-1.024-7.168 8.192-20.48 8.192-20.48s2.048-14.336 9.216-28.672c4.096-9.216 20.48-21.504 31.744-23.552 7.168-1.024 15.36 3.072 14.336 18.432zM627.126 509.513c0 0 12.288-8.192 14.336-22.528 3.072-14.336 12.288-23.552 18.432-27.648 13.312-7.168 20.48-1.024 22.528 7.168 2.048 10.24-3.072 29.696-10.24 36.864-11.264 11.264-23.552 18.432-23.552 18.432s-9.216 13.312-16.384 15.36c-8.192 2.048-15.36-5.12-15.36-13.312 1.024-7.168 10.24-14.336 10.24-14.336zM655.798 336.457c1.024 7.168-1.024 20.48-11.264 31.744s-10.24 25.6-10.24 25.6 0 12.288-7.168 16.384c-7.168 4.096-16.384 3.072-19.456-5.12-3.072-7.168 3.072-22.528 3.072-22.528s-1.024-14.336 1.024-29.696c2.048-10.24 14.336-26.624 24.576-30.72 8.192-3.072 17.408-1.024 19.456 14.336zM691.638 215.625c-12.288 9.216-14.336 23.552-14.336 23.552s-3.072 11.264-10.24 15.36c-7.168 3.072-16.384 0-18.432-8.192-2.048-7.168 6.144-21.504 6.144-21.504s1.024-14.336 6.144-29.696c4.096-10.24 18.432-23.552 28.672-25.6 8.192-2.048 17.408 2.048 16.384 17.408 2.048 7.168-2.048 19.456-14.336 28.672zM722.358 334.409c-7.168 13.312-17.408 23.552-17.408 23.552s-5.12 15.36-11.264 19.456c-7.168 4.096-15.36-1.024-18.432-8.192-2.048-7.168 4.096-17.408 4.096-17.408s9.216-11.264 8.192-25.6c-1.024-15.36 6.144-26.624 11.264-30.72 11.264-10.24 19.456-6.144 23.552 1.024 5.12 9.216 5.12 28.672 0 37.888zM882.102 178.761c-6.144-4.096-14.336-14.336-16.384-29.696-1.024-15.36-12.288-24.576-12.288-24.576s-8.192-8.192-7.168-16.384c1.024-8.192 8.192-14.336 16.384-11.264 7.168 2.048 15.36 17.408 15.36 17.408s11.264 8.192 21.504 20.48c6.144 8.192 10.24 27.648 7.168 38.912-4.096 9.216-12.288 14.336-24.576 5.12zM854.454 186.953c0 0 2.048 14.336 13.312 23.552s16.384 21.504 16.384 28.672c0 15.36-8.192 19.456-16.384 17.408-10.24-3.072-25.6-15.36-28.672-25.6-5.12-14.336-6.144-28.672-6.144-28.672s-8.192-14.336-6.144-21.504c2.048-8.192 11.264-11.264 18.432-8.192 7.168 2.048 9.216 14.336 9.216 14.336zM927.158 321.097c-4.096-6.144-8.192-18.432-4.096-33.792 4.096-14.336-2.048-27.648-2.048-27.648s-5.12-11.264-1.024-18.432c4.096-7.168 13.312-10.24 19.456-4.096 5.12 5.12 7.168 21.504 7.168 21.504s7.168 12.288 12.288 27.648c3.072 10.24-1.024 29.696-8.192 37.888-6.144 8.192-15.36 9.216-23.552-3.072zM890.294 410.185c-9.216-6.144-17.408-24.576-16.384-34.816 1.024-15.36 5.12-28.672 5.12-28.672s-2.048-16.384 2.048-22.528c5.12-7.168 14.336-6.144 20.48 0 5.12 6.144 3.072 17.408 3.072 17.408s-4.096 13.312 4.096 26.624c7.168 13.312 6.144 26.624 4.096 32.768-6.144 14.336-16.384 14.336-22.528 9.216z" />
</font>
</defs>
</svg>
